<svg xmlns="http://www.w3.org/2000/svg" width="22.6" height="22.122" viewBox="0 0 22.6 22.122">
  <path id="Icon_awesome-instagram" data-name="Icon awesome-instagram" d="M11.3,7.627a5.673,5.673,0,1,0,0,11.344,5.673,5.673,0,1,0,0-11.344Zm0,9.359A3.688,3.688,0,1,1,15.064,13.3,3.734,3.734,0,0,1,11.3,16.986Zm7.381-9.591a1.352,1.352,0,1,1-1.351-1.323A1.334,1.334,0,0,1,18.679,7.395Zm3.837,1.343A6.471,6.471,0,0,0,20.69,4.1a6.812,6.812,0,0,0-4.734-1.787c-1.865-.1-7.457-.1-9.322,0A6.8,6.8,0,0,0,1.9,4.1,6.492,6.492,0,0,0,.074,8.733c-.106,1.826-.106,7.3,0,9.127A6.471,6.471,0,0,0,1.9,22.5a6.82,6.82,0,0,0,4.734,1.787c1.865.1,7.457.1,9.322,0A6.767,6.767,0,0,0,20.69,22.5a6.514,6.514,0,0,0,1.825-4.635c.106-1.826.106-7.3,0-9.122ZM20.106,19.82a3.774,3.774,0,0,1-2.148,2.1c-1.487.578-5.017.444-6.66.444s-5.178.128-6.66-.444a3.774,3.774,0,0,1-2.148-2.1c-.59-1.456-.454-4.912-.454-6.521s-.131-5.07.454-6.521a3.774,3.774,0,0,1,2.148-2.1c1.487-.578,5.017-.444,6.66-.444s5.178-.128,6.66.444a3.774,3.774,0,0,1,2.148,2.1c.59,1.456.454,4.912.454,6.521S20.7,18.368,20.106,19.82Z" transform="translate(0.005 -2.238)" fill="#f50"/>
</svg>
