<svg xmlns="http://www.w3.org/2000/svg" width="25.287" height="24.122" viewBox="0 0 25.287 24.122">
  <g id="Icon_feather-linkedin" data-name="Icon feather-linkedin" transform="translate(1 1)">
    <path id="Path_247" data-name="Path 247" d="M22.282,12a7.282,7.282,0,0,1,7.282,7.282v8.5H24.709v-8.5a2.427,2.427,0,1,0-4.855,0v8.5H15v-8.5A7.282,7.282,0,0,1,22.282,12Z" transform="translate(-6.277 -5.655)" fill="none" stroke="#f50" stroke-linecap="round" stroke-linejoin="round" stroke-width="2"/>
    <path id="Path_248" data-name="Path 248" d="M3,13.5H7.855V28.064H3Z" transform="translate(-3 -5.942)" fill="none" stroke="#f50" stroke-linecap="round" stroke-linejoin="round" stroke-width="2"/>
    <path id="Path_249" data-name="Path 249" d="M7.855,5.427A2.427,2.427,0,1,1,5.427,3,2.427,2.427,0,0,1,7.855,5.427Z" transform="translate(-3 -3)" fill="none" stroke="#f50" stroke-linecap="round" stroke-linejoin="round" stroke-width="2"/>
  </g>
</svg>
